<mxfile host="app.diagrams.net" modified="2020-04-26T22:38:11.239Z" agent="5.0 (Macintosh; Intel Mac OS X 10_15_4) AppleWebKit/537.36 (KHTML, like Gecko) Chrome/81.0.4044.122 Safari/537.36" etag="3p3ZOMWBxqBwRKZISpJx" version="13.0.1" type="github">
  <diagram id="FhGGaX4cZ6p4cUrIo7r3" name="Page-1">
    <mxGraphModel dx="1163" dy="729" grid="1" gridSize="10" guides="1" tooltips="1" connect="1" arrows="1" fold="1" page="1" pageScale="1" pageWidth="850" pageHeight="1100" math="0" shadow="0">
      <root>
        <mxCell id="0" />
        <mxCell id="1" parent="0" />
        <mxCell id="ucCcJ9smYMJADtl1qao4-1" value="" style="shape=tape;whiteSpace=wrap;html=1;" vertex="1" parent="1">
          <mxGeometry x="360" y="320" width="120" height="100" as="geometry" />
        </mxCell>
        <mxCell id="ucCcJ9smYMJADtl1qao4-2" value="" style="shape=document;whiteSpace=wrap;html=1;boundedLbl=1;" vertex="1" parent="1">
          <mxGeometry x="360" y="330" width="120" height="80" as="geometry" />
        </mxCell>
      </root>
    </mxGraphModel>
  </diagram>
</mxfile>
